<?xml version="1.0" encoding="UTF-8"?>
<svg id="Layer_1" data-name="Layer 1" xmlns="http://www.w3.org/2000/svg" viewBox="0 0 357.12 374.04">
  <defs>
    <style>
      .cls-1, .cls-2, .cls-3, .cls-4, .cls-5, .cls-6, .cls-7, .cls-8, .cls-9, .cls-10, .cls-11, .cls-12, .cls-13, .cls-14, .cls-15 {
        stroke: #000;
        stroke-miterlimit: 10;
      }

      .cls-1, .cls-8 {
        fill: none;
      }

      .cls-2 {
        fill: #943e00;
        stroke-width: .75px;
      }

      .cls-3 {
        fill: #39a0ed;
      }

      .cls-3, .cls-5, .cls-6, .cls-7, .cls-8, .cls-10, .cls-12, .cls-15 {
        stroke-width: 2px;
      }

      .cls-16 {
        fill: #c7d6c3;
        opacity: .62;
      }

      .cls-4 {
        stroke-width: .5px;
      }

      .cls-4, .cls-17 {
        fill: #d7e1f2;
      }

      .cls-5, .cls-6, .cls-13, .cls-14 {
        fill: #39bced;
      }

      .cls-17, .cls-18 {
        opacity: .76;
      }

      .cls-6 {
        opacity: .84;
      }

      .cls-19, .cls-12, .cls-18, .cls-20 {
        fill: #008bce;
      }

      .cls-21 {
        fill: #b3422a;
      }

      .cls-21, .cls-22, .cls-23 {
        opacity: .58;
      }

      .cls-7 {
        fill: #3c79b6;
      }

      .cls-22 {
        fill: #b3442a;
      }

      .cls-23 {
        fill: #b3262a;
      }

      .cls-9, .cls-10 {
        fill: #f58235;
      }

      .cls-9, .cls-14 {
        stroke-width: 3px;
      }

      .cls-24 {
        fill: #995341;
      }

      .cls-24, .cls-25 {
        opacity: .53;
      }

      .cls-11 {
        fill: #f2f6dd;
      }

      .cls-25 {
        fill: #b3534b;
      }

      .cls-20 {
        opacity: .69;
      }

      .cls-15 {
        fill: #004fb4;
      }

      .cls-26 {
        opacity: .96;
      }

      .cls-27 {
        fill: #89674a;
        opacity: .46;
      }
    </style>
  </defs>
  <g class="cls-26">
    <g>
      <polyline class="cls-19" points="251.04 84.72 253.03 84.72 252.04 87.04 251.04 85.88"/>
      <polyline class="cls-19" points="261.85 102.8 262.93 102.3 264.32 104.2 261.9 105.07"/>
      <polyline class="cls-19" points="250.13 93.97 252.12 93.97 251.44 96.66 249.97 96"/>
      <path class="cls-15" d="M115.26,198.9v11.97c0,1.6,1.02,2.92,2.32,3l122.94,7.89c1.4.09,2.57-1.28,2.57-3v-13.27c0-1.64-1.06-2.97-2.39-3.01l-66.12-3.2c-1.37-.04-59.32-2.06-59.32-.38Z"/>
      <path class="cls-14" d="M84.6,97.29l-4.35,106.86c-.02.56.42,1.04.99,1.05l94.95-1.49c2.05.05,95.76,4.11,96.02,2.07l5.63-77.97v-16.85l-1.4-11.75c-.31-2.62-2.18-4.79-4.73-5.48l-24.3-6.64c-16.42-4.49-33.34-6.93-50.36-7.25l-22.27-.43c-21.09-.41-42.16,1.78-62.72,6.52l-22.29,5.13c-2.94.68-5.06,3.23-5.18,6.24Z"/>
      <path class="cls-11" d="M160.63,138.11c.16,14.43-9.66,30.86-26.95,34.44-20.01,4.14-33.55-7.46-36.76-26.66-4.08-24.47,12.44-38.74,29.81-41.85,17.97-3.22,33.69,16.32,33.9,34.07Z"/>
      <path class="cls-11" d="M207.22,124.67c4.56-8.1,13.1-14.86,23.09-17.21,5.61-1.32,11.69-1.24,17.76.77,19.54,6.47,25.52,23.4,18.65,41.76-8.75,23.39-30.35,27.5-47.07,21.46-17.3-6.25-21.19-31.19-12.43-46.77Z"/>
      <ellipse cx="130.38" cy="138.53" rx="8.81" ry="9.96"/>
      <ellipse cx="235.06" cy="141.6" rx="8.81" ry="9.96"/>
      <path class="cls-11" d="M157.48,168.93h44.69c.93,0,1.65.82,1.53,1.74l-.28,2.13c-.05.38-.24.73-.54.98l-3.82,3.21c-.38.32-1.06.74-1.51.95l-7.16,3.66c-.16.07-3.44,1.02-3.62,1.04l-4.39.68c-.09,0-4.5,0-4.59,0l-5.16-.22c-.12-.01-4.93-1.11-5.04-1.15l-5.2-2.33c-3.01-1.03-4.92-3.75-6.81-6.31l-.58-.78-.3-1.8c-.16-.94.57-1.8,1.52-1.8h1.24Z"/>
      <path class="cls-16" d="M107.27,114.47l.77-.6c-1.08,2.15-2.7,6.91-2.7,9.34l-.27,3.61c-.07.9-.03,1.8.17,2.68.07.3.11.6.12.91l.06,2.17c.01.38.07.76.17,1.13.65,2.32.79,2.99.98,4.04h0c.65,3.58,1.58,7.1,2.77,10.52h0c.83,2.42,2.12,4.64,3.78,6.55l1.45,1.67c.14.16.3.32.46.46l2.78,2.44c.4.35.85.63,1.34.84l7.62,3.21c.29.12.6.22.91.29l6.7,1.42c1.68.36,3.39.58,5.1.66l4.12.2c.16,0,.32,0,.47,0l2.95-.13-2.95,2.09c-.33.22-2.82,1.6-3.2,1.73l-4.73,1.65c-.23.08-2.41.62-2.66.67l-3.63.59c-.62.16-5.87.31-6.51.23l-5.5-.84c-1.63-.19-3.21-.7-4.66-1.5l-5.32-3.46c-.27-.18-.53-.38-.77-.61-2.81-2.74-5.18-5.55-6.7-8.83l-1.37-2.91c-.11-.22-.19-.46-.26-.69l-1.32-4.57c-.02-.08-.05-.17-.07-.26-1.22-5.27-1.36-6.67-1.27-8.72l.06-3.8c.05-.86.74-4.87,1.01-5.7l.9-3.66c.08-.36,1.12-2.3,1.45-3,.06-.13.13-.26.21-.38l1.66-2.74c.08-.13.17-.26.26-.38l1.83-2.45c.14-.19.29-.36.46-.53l3.33-3.32Z"/>
      <path class="cls-16" d="M224.26,109.84l2.95-1.07-4.74,1.72-4.44,2.6-3.28,2.54-2.14,2.01-1.91,2.11-1.92,2.54-1.06,1.64-1.15,2.08-.77,1.64-.58,1.41-.97,2.89-.57,2.22-.31,1.53-.3,1.9-.37,1.9v2.76l.05,2.77.2,2.57.33,2.34.7,3.21.6,2.03.54,1.51.72,1.73,1.25,2.47.8,1.33,1.24,1.76,1.56,1.84,1.07,1.08,1.31,1.14,1.74,1.27,1.25.76,2.31,1.12,1.5.56,2.56.79,2.11.52,2.75.5,1.64.39h4.45s1.63-.08,1.63-.08l1.53-.13,2-.28,1.17-.22-3-.56-2.7-1.33-2.03-1.24-2.6-1.33-1.95-1.43-2.41-1.62-2.32-2.19-2.5-2.28-1.3-1.62-1.29-1.23-1.58-2.19-1.02-1.33-1.3-2.09-.83-1.71-.74-2.28-.46-2.19-.09-2-.09-1.81-.09-1.89.19-2.49.19-1.71.19-1.9.37-2.19.37-2.09.83-2.47,1.48-3.42.65-1.9c.27-.56,1.49-3.07,1.81-3.61l1.72-2.23,1.53-2.28.78-1.15c.07-.15.15-.3.24-.44l.56-.84,1.94-2.4Z"/>
      <polygon class="cls-10" points="124.52 85.77 109.77 89.19 109.12 71.37 120.71 69.89 124.52 85.77"/>
      <path class="cls-10" d="M104.65,38.47c1.63,8.29,4.93,16.55,5.95,24.75.67,3.81-.1,10.17,5.91,7.86,2.25-.96,1.43-3.94,1.29-5.97-.38-3.59-.72-6.94-1.13-10.09-.47-3.8-1.03-8.18-1.81-11.47-.41-1.87-.96-4.07-.27-5.9.58-1.62,1.63-3.16,1.85-5.28.21-2.26-.43-4.54-.83-6.81-.93-4.71-2.66-9.04-4.96-13.21-2.02-3.86-4.43-7.38-7.95-10-1.05-.91-2.91-1.87-3.74-1.06-.7.55-.93,1.76-1.01,2.74-.35,4.87-.11,10.29-.17,15.26-.12,6.79-.25,14.39,5.07,19.46"/>
      <path class="cls-8" d="M101.72,37.86c1.85.78,3.85,1.19,5.86,1.22"/>
      <path class="cls-8" d="M260.42,42.62c.94.58,1.97,1.01,3.03,1.3"/>
      <polygon class="cls-10" points="262.49 93.91 248.45 89.42 252.83 74.72 263.09 77.04 262.49 93.91"/>
      <path class="cls-10" d="M258.66,75.84l-1.42-.41c-1.37-.4-2.21-1.79-1.92-3.19l5.66-27.44c.26-1.28-.95-3.4.35-3.4l6.06,1.21-.25,1.5-5,29.56c-.27,1.62-1.9,2.64-3.47,2.18Z"/>
      <path class="cls-10" d="M266.42,44.39c9.33-6.74,11.26-17.79,10.42-28.84-.4-3.33-.85-8.43-4.29-9.76-5.4-.68-8.83,8.63-10.42,12.79-2.95,7.99-3.7,16.53-.73,24.49"/>
      <path class="cls-9" d="M232.4,311.69l-131.83-1.72c-1.19-.02-3.7-4.5-3.68-5.73l1.51-89.67c.02-1.23,1.01-2.21,2.2-2.19l152.9,2.57c1.19.02,2.14,1.03,2.12,2.26l-1.51,89.67c-.02,1.23-20.52,4.83-21.71,4.81Z"/>
      <path class="cls-7" d="M154.99,321.89l-14.48.66c-.23,0-13.24-.85-13.24-1.08v-9.42c0-.23.19-.41.41-.41h27.31c.23,0,.41.19.41.41v9.42c0,.23-.19.41-.41.41Z"/>
      <path class="cls-7" d="M232.04,321.89l-14.48.66c-.23,0-13.24-.85-13.24-1.08v-9.42c0-.23.19-.41.41-.41h27.31c.23,0,.41.19.41.41v9.42c0,.23-.19.41-.41.41Z"/>
      <path class="cls-12" d="M129.85,322.83l5.3,3.16.46,6.66h12.25v-6.95l6.58-3.45s0-.02,0-.02l-25.36.2c-1.8.12.77.39.79.4Z"/>
      <path class="cls-12" d="M206.48,322.83l5.3,3.16.46,6.66h12.25v-6.95l6.58-3.45s0-.02,0-.02l-22.69.18s-1.9.41-1.88.42Z"/>
      <path class="cls-6" d="M147.85,332.65l3.18,27.02c.07.85.87,1.45,1.7,1.28h0s1.7,11.42,1.7,11.42l-45.15-1.74-.33-3.1.83-2.73.7-1.41.62-1.45,1.28-1.53.83-.83.99-1.03,1.53-.74,1.28-.79,1.12-.21.91-.41,1.03-.25h1.32l3.52.08,2.34.74,2.87,2.73,2.98.74,1.99.25,1.24-.74.88-8.74-1.71-14.9.09-3.67h12.25Z"/>
      <path class="cls-6" d="M212,333.32l-1.27,27c-.03.73-.62,1.3-1.34,1.3h0c-.66,0-1.23.5-1.33,1.17l-1.27,8.69c-.12.83.51,1.57,1.33,1.57h41.72c.74,0,1.34-.61,1.34-1.37v-3.27c0-.13-.02-.27-.06-.4l-.72-2.43c-.02-.07-.05-.15-.08-.22l-.62-1.27s-.02-.05-.03-.07l-.52-1.23c-.05-.12-.12-.24-.2-.34l-1.09-1.33s-.05-.06-.08-.09l-.77-.78-.81-.86c-.11-.12-.24-.21-.38-.28l-1.23-.61s-.08-.04-.11-.06l-.99-.62c-.14-.09-.3-.15-.46-.18l-.85-.16-.89-.41-.86-.21c-.1-.03-.21-.04-.31-.04h-1.14l-3.26.08c-.13,0-.25.02-.38.06l-1.82.59c-.19.06-.37.17-.52.31l-2.37,2.29c-.15.15-.33.25-.53.32l-2.22.7c-.11.04-.23.06-.35.06l-1.48.05c-.21,0-.41-.04-.6-.12l-.37-.17c-.46-.22-.77-.68-.78-1.2l-.26-8.26c0-.05,0-.1,0-.15l.13-13c0-.05.22-2.98.21-3.03l-.05-1.93-12.32-.08Z"/>
      <circle class="cls-2" cx="141.75" cy="264.13" r="12.17"/>
      <circle class="cls-2" cx="218.38" cy="264.13" r="12.17"/>
      <path class="cls-7" d="M93.42,228.41l-3.73-.28c-.85.06-1.63.4-2.22.94l-2.68,2.5-2.17,2.8-1,3.68-.29,2.5.29,2.35.88,2.08,1.46,1.01,3.25,2.35,3.25,1.77,3.34,1.77,1.66.88c.51.27,1.15.24,1.61-.08l1.18-.8v-21.34l-4.83-2.13Z"/>
      <path class="cls-5" d="M78.27,288.88l-11.32-11.6,12.46-27.43c.38-.79,3.81-4.31,4.56-3.85l9.84,5.89c.98.6-2.74,9.34-3.23,10.38l-8.94,20.28c-.58,1.25-2.41,7.33-3.37,6.35Z"/>
      <path class="cls-3" d="M71.41,282.86c.63-.73.62-1.81-.03-2.53l-17.12-18.97c-.87-.87-2.27-.87-3.14,0l-11.65,12.78c-.73.8-.65,2.05.18,2.75l19.66,18.19c.8.67,2.29-.83,2.97-1.62l9.13-10.6Z"/>
      <polygon class="cls-5" points="60.14 295.42 62.62 298.14 65.35 296.24 68.17 299.14 69.66 299.72 72.29 300.13 75.45 298.89 77.6 296.32 78.27 294.59 78.27 292.43 78.27 289.87 78.27 287.88 72.29 281.28 60.14 295.42"/>
      <path class="cls-5" d="M40.11,272.74c-5.1-2.89-11.13-.03-16.53.61-5.75.83-11.99.88-14.2-5.55-1.42-3.51-3.43-6.8-4.77-10.24-1.29-3.99-2.02-8.25-3.36-12.42-.53-2.29-.31-4.73,1.35-6.45,1.93-2.06,5.61-5.19,8.41-5.7,2.73-.36,4.93,1.93,7.01,3.31,5.36,3.52,8.3-9.23,17.43-2.75,3.96,2.6,4.56,7.1,6.32,11.04,3.96,6.45,9.73,10.45,7.44,18.87l-9.1,9.28Z"/>
      <path class="cls-7" d="M260.27,223.24l3.73-.28c.85.06,1.63.4,2.22.94l2.68,2.5,2.17,2.8,1,3.68.29,2.5-.29,2.35-.88,2.08-1.46,1.01-3.25,2.35-3.25,1.77-3.34,1.77-1.66.88c-.51.27-1.15.24-1.61-.08l-1.18-.8v-21.34l4.83-2.13Z"/>
      <path class="cls-5" d="M274.36,282.87l11.14-11.95-12-26.15c-.38-.78-3.66-3.43-4.41-2.97l-10.17,5.94c-.98.59,2.91,8.29,3.4,9.32l8.94,20.07c.58,1.24,2.13,6.72,3.09,5.75Z"/>
      <path class="cls-5" d="M290.36,290.29l-3.34.04-2.31.43-3.89,1.1-1.58-.24-2.49-.96-2.12-2.66-.58-3.3.3-1.84,1.08-1.86,1.28-2.22.99-1.72,9.46-7.46c.69-.55,1.71-.09,1.78.79l1.41,19.9Z"/>
      <path class="cls-3" d="M287.45,270.86c-.11-1.11.65-1.99,1.77-2.05l29.72-1.64c1.44,0,2.81,1.14,3.06,2.56l2.51,20.01c.16,1.25-.78,2.21-2.07,2.11l-31.66-1.08c-1.24-.1-1.65-2.55-1.77-3.76l-1.56-16.16Z"/>
      <path class="cls-5" d="M322.37,293.3c1.28.06,2.9.35,4.65.73,5.21.92,11.62,1.93,16.9.61,4.1-.84,4.51-5.3,5.96-8.49,2.66-4.72,3.97-9.83,4.8-15.15.46-1.85,1.46-3.99,1.43-5.74.21-4.54-4.76-7.89-8.06-9.88-2.81-1.26-5.17,1.84-7.12,3.37-3.25,2.77-5.93-4.6-9.6-4.67-3.52-.91-6.85,2.53-8.54,5.37-.84,1.5-1.04,3.11-1.43,4.73-.41,1.82-1.2,3.07-2.56,5.09-2.53,3.78-5.63,7.25-5.45,12.07-.23,2.86,1.71,4.89,3.5,6.89,1.89,1.93,3.69,4.67,5.42,5.04l.11.02Z"/>
      <path class="cls-27" d="M137.96,214.13c-7.39,1.95-15.25,3.62-21.51,8.07-12.49,10.74-8.64,29.01-8.62,43.61.18,3.39,0,6.39.41,9.72.45,3.04,1.68,5.71,2.4,8.68.98,4.56,3.77,8.31,6.9,11.67,1.73,2.06,8.45,2.66,11.52,2.94,13.76.83,21.59.64,35.35,1.23,10.33.31,21.64,1.72,31.43,1.1,12.87-.44,40.83-1.41,45.96-1.58,2.2-.02,4.12-1,6.46-1.69,1.9-.72,4.32-.34,4.91,1.84.64,2.36.52,7.24-1.99,8.33-4.19,1.69-9.05.78-13.46,1.64-5.61,1.33-11.07.88-17,.7-7.43-.19-16.5-.09-23.77-.22-27.75-.81-63.02.45-92.09-.18-11.12.1-5.66-15.83-6.68-22.75,0-9.86.15-23.03.17-32.95-.08-9.53.35-22.78.92-34.65.09-2.72-1.43-6.62,1.38-7.29,4.39-.66,10.68,1.42,14.78,1.35,6.87.2,16.23-.07,22.57.42l-.04.02Z"/>
      <path class="cls-4" d="M169.75,172.85h19.03l7.08-.33,3.27-.33"/>
      <path class="cls-23" d="M222.79,292.85c.09-.44.43-1.16.53-1.57.05-.22,0-.31-.21-.34-.2-.03-.54-.01-.84-.02-.92-.06-.71.31-.73,1.25,0,.46-.03.86.06,1.07.24.33.7.55,1.11.5.17-.12.04-.51.06-.77v-.14Z"/>
      <polyline class="cls-23" points="135.14 243.65 135.51 241.79 134.54 241.79 134.54 244.15 135.21 244.65"/>
      <path class="cls-23" d="M227.5,253.1l-3.73-3.94c-.2-.21-.53-.2-.72.02l-.5.59c-.17.2-.14.51.06.68l5.26,4.41c.08.07.19.11.29.11l3.39,2.69"/>
      <polyline class="cls-23" points="219.34 224.16 219.93 223.23 218.38 223.23 218.38 224.4 219.45 224.65"/>
      <polyline class="cls-23" points="221.82 227.79 222.29 226.7 221.05 226.7 221.05 228.08 221.91 228.37"/>
      <polyline class="cls-23" points="219.34 225.17 219.93 224.24 218.38 224.24 218.38 225.42 219.45 225.67"/>
      <polyline class="cls-21" points="169 301.99 175.75 299.99 157.96 299.99 157.96 302.53 170.23 303.06"/>
      <polyline class="cls-22" points="99.73 299.73 100.63 297.07 98.26 297.07 98.26 300.44 99.9 301.15"/>
      <path class="cls-20" d="M88.68,93.5c2.87-.96,11.85-3.65,13.7-3.38.61.1-3,3.35-3.11,3.79-1.56,3.87-3.19,6.25-4.44,10.33-1.79,4.85-2.58,9.97-3.13,15.05-1.67,11.34-1.92,22.93-1.91,34.35-.11,7.22.89,14.33,2.29,21.44,1.28,9.07,3.29,20.31,13.37,24,3.6,1.36,7.41,1.22,11.84,1.28,3.75,0,7.82,0,11.33,0,12.98,0,59.59-.07,81.27.06,6.44.26,12.92.92,19.43,1.2,4.34.13,8.54.1,12.87.42,8.65.62,17.62.17,26.3.39.15,0,.32.02.51.05,2.36.33,2.05,3.7-.32,3.66-12.43-.18-35.17-.73-35.47-.73-12.41-.8-131.17.02-149.4-.85-.96-.05-1.67-.88-1.68-1.81-.11-18.77.72-47.55,1.33-63.05.48-7.35,2.19-33.89,2.73-42.11.16-1.86.39-3.4,2.5-4.1h0Z"/>
      <path class="cls-1" d="M17.84,242.57c-1.13.46-2.05.48-2.86.58-1.43.17-2.44.6-4.47,1.45-1.68.71-3.13,1.32-4.84,2.42-.8.52-2.38,1.18-2.73,1.13-1.62-.23-1.98-4.48-1.94-5.42.07-2.19,1.95-4.74,2.94-5.97,1.27-1.59,3.21-2.29,3.85-2.52,1.02-.36,2.25-.79,3.72-.58,2.28.32,3.64,1.93,4.22,2.61,1.44,1.7.84,2.55,2.48,3.78.62.46,1.27.76,1.24,1.26-.04.62-1.13,1.06-1.61,1.26Z"/>
      <path class="cls-1" d="M19.46,240.17c-.27,1.28,1.25,2.76,2.36,3.48,3.47,2.24,8.51.62,11.17-1.24.69-.48,1.14-.92,1.49-1.37,1.14-1.44,2.12-3.96,1.24-5.83-1.15-2.47-5.13-2.99-7.7-2.36-3.17.78-3.22,3.06-7.57,6.08-.28.19-.85.58-.99,1.24Z"/>
      <path class="cls-1" d="M2.74,249.3c-.1-1.7,2.51-.9,6.83-3.48,1.55-.92,2.08-1.46,3.6-1.99,1.55-.54,3.48-1.21,4.84-.25,1.15.81,1.36,2.28,1.4,2.61.04.26.27,2.19-.78,2.98-.97.72-2.13-.29-3.6-.25-4.55.13-6.56,7.85-9.52,7.54-2.18-.23-2.65-5.01-2.77-7.17Z"/>
      <path class="cls-1" d="M8.05,262.48c1.14.02,1.58-.64,4.21-2.33,1.08-.7,2.14-1.2,3.68-1.53,2.39-.51,3.14-.29,4.03-.98,1.41-1.1,2.52-5.37.41-6.34-3.15-1.46-6.84-3.08-8.82.41s-6.47,4.87-6.73,5.93c-.51,2.06,1.51,4.8,3.23,4.84Z"/>
      <path class="cls-1" d="M14.66,271.57c2.24-.01,3.64.72,4.3.08.59-.57,2.36-4.84,2.76-7.76.13-.96.42-3.11-.5-4.15-2.39-2.74-12.84,2.26-12.79,6.59.03,2.35,3.31,5.25,6.22,5.24Z"/>
      <path class="cls-1" d="M328.56,255.29c-1.51.39-2.98,1.64-3.7,2.48-1.22,1.42-5.49,11.02-.28,10.45,3.25-.35,4.64-.63,5.68-1.17.5-.26.95-.65,1.54-1.1.57-.43,1.25-.95,1.76-1.44.66-.64,2.2-2.09,2.1-3.87-.06-.99-1.21-4.41-2.39-5.46-1.59-1.41-2.88-.38-4.72.1Z"/>
      <path class="cls-1" d="M342.7,258.33c-1.74,1.68-1.62,4.26.07,5.29.79.48,5.41,1.49,6.63,1.99,5.38,2.23,4.32,3.61,6,2.93,1.73-.7.21-6.4-3.35-9.22-3.33-2.63-4.77-5.41-9.35-.99Z"/>
      <path class="cls-1" d="M352.26,269.66c-2.06-3.71-9.09-4.22-12.56-2.31-2.48,1.36-2.72,3.75-1.84,5.46.64,1.23,2.67,1.57,4.14,1.82,1.91.32,2.17.84,3.41,1.15,2.98.74,3.97,3.35,5.37,3.16,1.62-.23,3.6-5.47,1.49-9.27Z"/>
      <path class="cls-1" d="M337.6,276.8c-1.48,1.46-4.26,6.42-2.81,7.84.74.72,4.78-1.03,6.54,0,4.33,2.53,4.74,2.43,5.88,1.89,1.5-.72,2.55-2.95,2.32-4.77-.57-4.44-8.95-7.87-11.92-4.95Z"/>
      <path class="cls-1" d="M333.07,287.24c-1.55,1.14-.45,2.59.05,4.6.88,3.46,9.25,3.8,12.42.72,1.32-1.28.5-1.91-.1-3.82-1.08-3.37-9.12-3.92-12.38-1.51Z"/>
      <path class="cls-1" d="M335.67,263.26l-1.78,2.23-2.08,1.71c-.83.68-1.41,1.61-1.67,2.65l-.56,1.54-.72,1.8"/>
      <path class="cls-13" d="M30.17,256.13l-1.74-1.52c-.36-.32-.57-.78-.57-1.26h0c0-.36-.12-.72-.34-1.01l-.64-.85c-.32-.42-.81-.66-1.33-.66h-4.64"/>
      <path class="cls-17" d="M134.99,87.24c-.04-.94,13.58-2.55,19.49-3.14,27.46-2.78,48.02-.01,57.88,1.66,10.48,1.78,21.61,4.48,21.53,5.21-.08.74-11.54-.74-21.93-1.74-44.29-4.26-76.9-.53-76.96-1.99Z"/>
      <path class="cls-17" d="M171.98,89.85l3.16-1.36c.62-.27,1.26-.48,1.93-.65l2.32-.58,6.43-1.24-11.83,3.83-7.31,2.51"/>
      <path class="cls-25" d="M99.17,3.17c-.58.07-.67,26.29,0,16.63.36-5.21-.44,3.82,0,8.19.13,1.29.4,3.36,1.49,5.71.47,1.01,3.31,4.69,3.99,4.76,5.94.61.63-8.93.23-12.96-1.02-10.08-4.97-22.44-5.71-22.34Z"/>
      <path class="cls-18" d="M113.82,362.81c-.29-1.2,2.75-2.87,4.22-3.48.85-.35,4.44-1.68,7.94.25.51.28,3.25,1.79,2.98,2.98-.57,2.54-14.57,2.68-15.14.25Z"/>
      <path class="cls-18" d="M234.46,360.27c.87-1.02,6.44-.22,8.22.22.6.15,3.92,1.57,3.71,2.67-.24,1.29-8.84,2.53-11.4-.44-.6-.69-1.06-1.82-.53-2.44Z"/>
      <g>
        <polygon class="cls-19" points="215.44 361.86 212.13 362.22 213.29 334.78 216.23 334.86 215.44 361.86"/>
        <polyline class="cls-19" points="215.44 361.76 215.44 371.44 208.24 371.44 209.48 363.33 210.32 363.06 210.68 362.83 211.11 362.51 211.57 362.05 211.84 361.61 212 361.13 212.17 360.92"/>
      </g>
      <g>
        <polygon class="cls-19" points="145.45 360.74 149.52 360.92 146.53 334.19 144.6 334.36 145.45 360.74"/>
        <polyline class="cls-19" points="145.39 360.64 145.39 369.61 152.55 370.12 151.31 362.18 150.48 361.92 150.12 361.68 149.7 361.37 149.24 360.92 148.97 360.49 148.81 360.02 148.64 359.82"/>
      </g>
    </g>
    <path class="cls-24" d="M112.82,69.89c3.49-4.84-2.76-28.06-6.46-29.72"/>
    <path class="cls-24" d="M262.31,43.27c-.64.45-4.86,21.75-1.27,12.78,1.94-4.84-1.43-.17-3.14,7.45-.28,1.26-.99,3.91-1.32,6.29-.14,1.02-.6,3.88-.33,4.06,2.37,1.51,2.37-8.08,3.88-11.82,5.06-12.59,2.48-18.96,2.19-18.75Z"/>
    <path class="cls-24" d="M268.27,8.88c-.57-.13-10.79,23.1-6.86,14.26,2.12-4.77.1,1.34-.98,5.61-.32,1.26.07,4.04.29,6.62.09,1.11.61,8.73,1.23,9.03,5.37,2.6.56-10.46,1.56-14.38,2.49-9.82,5.49-20.96,4.77-21.13Z"/>
  </g>
</svg>